<svg width="96" height="96" viewBox="0 0 96 96" xmlns="http://www.w3.org/2000/svg">
  <defs>
    <linearGradient id="g" x1="0%" y1="0%" x2="100%" y2="100%">
      <stop offset="0%" stop-color="#1f9bb6"/>
      <stop offset="100%" stop-color="#155b8a"/>
    </linearGradient>
  </defs>
  <rect width="96" height="96" rx="20" fill="url(#g)"/>
  <path d="M22 60h12v8H14V28h8v32Zm14-32h12v8H36v-8Zm0 12h10v8H36v-8Zm0 12h12v8H36v-8Zm16-24h10c6.6 0 12 5.4 12 12v20c0 6.6-5.4 12-12 12H52V28Zm10 8H60v28h2c2.2 0 4-1.8 4-4V40c0-2.2-1.8-4-4-4Z" fill="#e8f6ff" />
  <text x="14" y="82" font-family="Inter, Arial, sans-serif" font-size="14" font-weight="700" fill="#e8f6ff">TLZJ</text>
</svg>
<svg xmlns="http://www.w3.org/2000/svg" viewBox="0 0 32 32">
  <rect width="32" height="32" fill="#a40035" rx="4"/>
  <text x="16" y="22" font-family="Arial, sans-serif" font-size="18" font-weight="bold" fill="white" text-anchor="middle">F</text>
</svg>